# xmcd
#
# Track frame offsets:
#	150
#	18955
#	45711
#	60774
#	75662
#	84192
#	101315
#	116038
#	127901
#	147019
#	164523
#	182956
#	197464
#	211675
#	228607
#	253363
#	267851
#	281683
#	296248
#
# Disc length: 4199 seconds
#
# Revision: 1
# Processed by: cddbd v1.5.2PL0 Copyright (c) Steve Scherf et al.
# Submitted via: audiograbber 1.83.01
#
DISCID=07106513
DTITLE=Various Artist - Sunday Morning [Disc 2]
DYEAR=2009
DGENRE=Easy Listening
TTITLE0=Death Cab For Cutie - I Will Possess Your Heart (Album Version)
TTITLE1=Snow Patrol - Run (Revised Album Version)
TTITLE2=KT Tunstall - Suddenly I See
TTITLE3=Colbie Caillat - Bubbly (Album Version)
TTITLE4=Matt Costa - Lovin' (Feat. Ane Brun)
TTITLE5=John Butler - Losing You
TTITLE6=The Cat Empire - Panama
TTITLE7=The Kooks - One Last Time
TTITLE8=The Thrills - Santa Cruz (You're Not That Far)
TTITLE9=John Mayer - No Such Thing
TTITLE10=Gomez - See The World
TTITLE11=Donavon Frankenreiter - Life, Love and Laughter (Album Version)
TTITLE12=Jamie Lidell - Multiply
TTITLE13=Ayo - Love And Hate
TTITLE14=Massive Attack - Teardrop (2006 Digital Remaster)
TTITLE15=Feist - So Sorry
TTITLE16=Ryan Adams - Two Hearts (Album Version)
TTITLE17=Teddy Thompson - In My Arms (Album Version)
TTITLE18=Commodores - Easy (Single Version)
EXTD=
EXTT0=
EXTT1=
EXTT2=
EXTT3=
EXTT4=
EXTT5=
EXTT6=
EXTT7=
EXTT8=
EXTT9=
EXTT10=
EXTT11=
EXTT12=
EXTT13=
EXTT14=
EXTT15=
EXTT16=
EXTT17=
EXTT18=
PLAYORDER=
